<?xml version="1.0" encoding="UTF-8"?>
<svg width="36px" height="36px" viewBox="0 0 36 36" version="1.1" xmlns="http://www.w3.org/2000/svg" xmlns:xlink="http://www.w3.org/1999/xlink">
    <title>Winner Cup</title>
    <defs>
        <linearGradient x1="50%" y1="0%" x2="50%" y2="100%" id="linearGradient-1">
            <stop stop-color="#FFE094" offset="0%"></stop>
            <stop stop-color="#E2B027" offset="75.8754884%"></stop>
            <stop stop-color="#FFCF59" offset="80.2544094%"></stop>
            <stop stop-color="#ECC14E" offset="100%"></stop>
        </linearGradient>
    </defs>
    <g id="页面-1" stroke="none" stroke-width="1" fill="none" fill-rule="evenodd">
        <g id="popup" transform="translate(-441.000000, -327.000000)">
            <g id="Winner-Cup" transform="translate(441.000000, 327.000000)">
                <rect id="矩形" x="0" y="0" width="36" height="36"></rect>
                <path d="M28.6308158,5.2071151 L28.72729,4.28148465 L28.72729,4.28148439 C28.8511333,3.15206838 28.0359564,2.13610033 26.906537,2.01225737 C26.831464,2.00402541 26.7559942,2 26.6804713,2 L9.81054225,2 C9.21083874,2 8.65024371,2.24770494 8.25913138,2.69096318 C7.86801905,3.12118743 7.68550134,3.70785249 7.75068673,4.28148253 L7.84976831,5.22405988 L7.84976814,5.22405988 C5.15007625,5.31390524 3.00622188,7.52519725 3,10.2263845 L3,10.5523107 C3,14.4764621 5.75081789,17.8960911 9.49244818,18.839961 C10.7009818,22.5894185 14.1466911,25.2450622 18.2455365,25.2450622 C22.5347165,25.2450622 25.8135453,22.4055911 26.964731,18.9168923 C30.8145636,18.0355885 33.6370982,14.5625029 33.6370982,10.5523107 L33.6370982,10.2263845 L33.6370982,10.2263889 C33.6349626,7.46029821 31.3969524,5.21646747 28.6308892,5.20711746 L28.6308158,5.2071151 Z M18,16 L14.4732885,17.854102 L15.1468305,13.927051 L12.2936609,11.145898 L16.2366442,10.572949 L18,7 L19.7633558,10.572949 L23.7063391,11.145898 L20.8531695,13.927051 L21.5267115,17.854102 L18,16 Z M5.60737648,10.5522963 L5.60737648,10.2263701 C5.60737648,8.89659227 6.68945118,7.81451413 8.01923242,7.81451413 L8.10397342,7.81451413 L8.91227155,15.8948829 C6.94498113,14.9040671 5.60737648,12.8442115 5.60737648,10.5523142 L5.60737648,10.5522963 Z M31.0296436,10.5522963 L31.0296436,10.5523122 C31.0213384,12.877708 29.6714582,14.9893736 27.5643645,15.9731185 L28.3778773,7.8145465 L28.617759,7.8145465 C29.9475368,7.8145465 31.0296436,8.89662119 31.0296436,10.2264024 L31.0296436,10.5523287 L31.0296436,10.5522963 Z M27.1928391,33.288922 L27.192839,33.288922 C27.9128552,33.288922 28.4965434,32.7052221 28.4965434,31.9852059 C28.4965434,31.2651898 27.9128552,30.6815016 27.192839,30.6815016 L24.281665,30.6815016 C23.5033523,29.4495002 22.7159163,28.5499432 22.2478864,27.1484694 C20.9076758,27.5956405 19.8034395,27.8524702 18.2454974,27.8524702 L18.2454981,27.8524702 C16.8900077,27.8546781 15.5444827,27.6208656 14.2691997,27.1615078 C14.2561626,27.1615078 14.2561626,27.1615078 14.2431256,27.1484694 C14.0084585,27.8133597 13.695569,28.4391401 13.2914217,29.0388436 L12.1963085,30.6815133 L9.28904639,30.6815133 L9.28904633,30.6815133 C8.56903018,30.6815134 7.985342,31.2652015 7.985342,31.9852177 C7.985342,32.7052338 8.56903018,33.288922 9.28904633,33.288922 L27.192839,33.288922 L27.1928391,33.288922 Z" id="形状" fill="url(#linearGradient-1)" fill-rule="nonzero"></path>
            </g>
        </g>
    </g>
</svg>